<?xml version="1.0" encoding="UTF-8"?>
<svg id="Layer_1" xmlns="http://www.w3.org/2000/svg" version="1.1" viewBox="0 0 124.71 144">
  <!-- Generator: Adobe Illustrator 30.1.0, SVG Export Plug-In . SVG Version: 2.1.1 Build 136)  -->
  <defs>
    <style>
      .st0, .st1, .st2, .st3, .st4, .st5, .st6, .st7, .st8, .st9 {
        stroke: #231f20;
      }

      .st0, .st1, .st2, .st3, .st4, .st5, .st8 {
        stroke-width: .17px;
      }

      .st0, .st1, .st7, .st9 {
        stroke-miterlimit: 10;
      }

      .st0, .st10 {
        fill: #ffdd15;
      }

      .st11 {
        fill: #d0d2d3;
        opacity: .75;
      }

      .st1 {
        fill: #cd7f32;
      }

      .st12 {
        fill: #fff;
      }

      .st13 {
        fill: #231f20;
      }

      .st2 {
        fill: #99a3a3;
      }

      .st2, .st3, .st4, .st5, .st6, .st8 {
        stroke-miterlimit: 1;
      }

      .st3 {
        fill: #ca6;
      }

      .st4 {
        fill: #a6a8ab;
      }

      .st5 {
        fill: #f1f1f2;
      }

      .st6 {
        stroke-width: .34px;
      }

      .st6, .st7, .st9 {
        fill: none;
      }

      .st7, .st9 {
        stroke-width: .07px;
      }

      .st8 {
        fill: #ced3d4;
      }

      .st9 {
        stroke-linecap: square;
      }
    </style>
  </defs>
  <g id="Frame">
    <polygon class="st12" points="1.38 107.2 1.38 36.8 62.35 1.59 123.33 36.8 123.33 107.2 62.35 142.41 1.38 107.2"/>
    <path class="st10" d="M62.35,3.18l59.6,34.41v68.82l-59.6,34.41L2.76,106.41V37.59L62.35,3.18M62.35,0L0,36v72l62.35,36,62.35-36V36L62.35,0h0Z"/>
  </g>
  <g>
    <g>
      <path class="st8" d="M41.09,22.37l1.6,26.85c.02.33.27.6.59.64l10.07,1.33c.24.03.49-.07.63-.26l6.18-8.06c.2-.26.19-.63-.03-.87l-17.85-20.12c-.43-.49-1.24-.15-1.2.5Z"/>
      <path class="st2" d="M53.61,53.31l-.71-1.71-1.41-3.41s0-.03-.01-.04l-.4-3.1c-.02-.18.21-.27.31-.12l1.79,2.52s.01.02.02.03l1.41,3.41.71,1.71"/>
      <rect class="st3" x="54" y="52.5" width="5.55" height="12.1" rx="1.86" ry="1.86" transform="translate(-18.08 26.19) rotate(-22.5)"/>
    </g>
    <g>
      <path class="st8" d="M12.23,51.94l20.12,17.85c.25.22.61.23.87.03l8.06-6.18c.19-.15.3-.39.26-.63l-1.33-10.07c-.04-.33-.31-.58-.64-.59l-26.85-1.6c-.65-.04-.98.77-.5,1.2Z"/>
      <path class="st2" d="M42.96,64.97l-1.71-.71-3.41-1.41s-.03-.01-.04-.02l-2.48-1.91c-.14-.11-.04-.34.13-.31l3.05.52s.03,0,.04.01l3.41,1.41,1.71.71"/>
      <rect class="st3" x="46.12" y="60.38" width="5.55" height="12.1" rx="1.86" ry="1.86" transform="translate(-31.18 86.18) rotate(-67.5)"/>
    </g>
    <g>
      <path class="st8" d="M12.72,93.26l26.85-1.6c.33-.02.6-.27.64-.59l1.33-10.07c.03-.24-.07-.49-.26-.63l-8.06-6.18c-.26-.2-.63-.19-.87.03l-20.12,17.85c-.49.43-.15,1.24.5,1.2Z"/>
      <path class="st2" d="M43.66,80.74l-1.71.71-3.41,1.41s-.03,0-.04.01l-3.1.4c-.18.02-.27-.21-.12-.31l2.52-1.79s.02-.01.03-.02l3.41-1.41,1.71-.71"/>
      <rect class="st3" x="42.85" y="74.8" width="12.1" height="5.55" rx="1.86" ry="1.86" transform="translate(-25.96 24.62) rotate(-22.5)"/>
    </g>
    <g>
      <path class="st8" d="M42.29,122.13l17.85-20.12c.22-.25.23-.61.03-.87l-6.18-8.06c-.15-.19-.39-.3-.63-.26l-10.07,1.33c-.33.04-.58.31-.59.64l-1.6,26.85c-.04.65.77.98,1.2.5Z"/>
      <path class="st2" d="M55.32,91.4l-.71,1.71-1.41,3.41s-.01.03-.02.04l-1.91,2.48c-.11.14-.34.04-.31-.13l.52-3.05s0-.03.01-.04l1.41-3.41.71-1.71"/>
      <rect class="st3" x="50.73" y="82.68" width="12.1" height="5.55" rx="1.86" ry="1.86" transform="translate(-43.9 105.21) rotate(-67.5)"/>
    </g>
    <g>
      <path class="st8" d="M83.61,121.63l-1.6-26.85c-.02-.33-.27-.6-.59-.64l-10.07-1.33c-.24-.03-.49.07-.63.26l-6.18,8.06c-.2.26-.19.63.03.87l17.85,20.12c.43.49,1.24.15,1.2-.5Z"/>
      <path class="st2" d="M71.1,90.69l.71,1.71,1.41,3.41s0,.03.01.04l.4,3.1c.02.18-.21.27-.31.12l-1.79-2.52s-.01-.02-.02-.03l-1.41-3.41-.71-1.71"/>
      <rect class="st3" x="65.15" y="79.41" width="5.55" height="12.1" rx="1.86" ry="1.86" transform="translate(-27.53 32.5) rotate(-22.5)"/>
    </g>
    <g>
      <path class="st8" d="M112.48,92.06l-20.12-17.85c-.25-.22-.61-.23-.87-.03l-8.06,6.18c-.19.15-.3.39-.26.63l1.33,10.07c.04.33.31.58.64.59l26.85,1.6c.65.04.98-.77.5-1.2Z"/>
      <path class="st2" d="M81.75,79.03l1.71.71,3.41,1.41s.03.01.04.02l2.48,1.91c.14.11.04.34-.13.31l-3.05-.52s-.03,0-.04-.01l-3.41-1.41-1.71-.71"/>
      <rect class="st3" x="73.03" y="71.52" width="5.55" height="12.1" rx="1.86" ry="1.86" transform="translate(-24.87 117.93) rotate(-67.5)"/>
    </g>
    <g>
      <path class="st8" d="M111.98,50.74l-26.85,1.6c-.33.02-.6.27-.64.59l-1.33,10.07c-.03.24.07.49.26.63l8.06,6.18c.26.2.63.19.87-.03l20.12-17.85c.49-.43.15-1.24-.5-1.2Z"/>
      <path class="st4" d="M81.04,63.26l1.71-.71,3.41-1.41s.03,0,.04-.01l3.1-.4c.18-.02.27.21.12.31l-2.52,1.79s-.02.01-.03.02l-3.41,1.41-1.71.71"/>
      <rect class="st3" x="69.76" y="63.65" width="12.1" height="5.55" rx="1.86" ry="1.86" transform="translate(-19.65 34.07) rotate(-22.5)"/>
    </g>
    <g>
      <path class="st8" d="M82.42,21.87l-17.85,20.12c-.22.25-.23.61-.03.87l6.18,8.06c.15.19.39.3.63.26l10.07-1.33c.33-.04.58-.31.59-.64l1.6-26.85c.04-.65-.77-.98-1.2-.5Z"/>
      <path class="st2" d="M69.39,52.6l.71-1.71,1.41-3.41s.01-.03.02-.04l1.91-2.48c.11-.14.34-.04.31.13l-.52,3.05s0,.03-.01.04l-1.41,3.41-.71,1.71"/>
      <rect class="st3" x="61.88" y="55.77" width="12.1" height="5.55" rx="1.86" ry="1.86" transform="translate(-12.16 98.9) rotate(-67.5)"/>
    </g>
  </g>
  <g>
    <path class="st1" d="M57.16,59.28c.56-.99,1.23-7.12,1.16-8.21s-.17-1.39-1.23-4.95-.96-5.35-1.03-9.73,3.38-13.21,4.86-16.81c1.22-2.95,2.51-1,2.94-.2l.11.21c1.44,3.62,4.79,12.49,4.66,16.87s-.04,6.16-1.15,9.71-1.21,3.85-1.29,4.94.51,7.23,1.06,8.23"/>
    <path class="st1" d="M49.69,66.68c-.3-1.1-4.17-5.9-4.99-6.63s-1.1-.87-4.37-2.63c-3.27-1.77-4.46-3.1-7.61-6.15s-6.95-11.73-8.45-15.33c-1.22-2.95,1.07-2.49,1.94-2.22l.23.07c3.58,1.54,12.21,5.45,15.23,8.63s4.33,4.39,6.06,7.68,1.87,3.58,2.58,4.4,5.48,4.75,6.57,5.07"/>
    <path class="st1" d="M49.63,77.19c-.99-.56-7.12-1.23-8.21-1.16s-1.39.17-4.95,1.23c-3.56,1.06-5.35.96-9.73,1.03-4.38.07-13.21-3.38-16.81-4.86-2.95-1.22-1-2.51-.2-2.94l.21-.11c3.62-1.44,12.49-4.79,16.87-4.66s6.16.04,9.71,1.15,3.85,1.21,4.94,1.29,7.23-.51,8.23-1.06"/>
    <path class="st1" d="M57.03,84.66c-1.1.3-5.9,4.17-6.63,4.99s-.87,1.1-2.63,4.37-3.1,4.46-6.15,7.61-11.73,6.95-15.33,8.45c-2.95,1.22-2.49-1.07-2.22-1.94l.07-.23c1.54-3.58,5.45-12.21,8.63-15.23s4.39-4.33,7.68-6.06c3.29-1.73,3.58-1.87,4.4-2.58s4.75-5.48,5.07-6.57"/>
    <path class="st1" d="M67.54,84.72c-.56.99-1.23,7.12-1.16,8.21s.17,1.39,1.23,4.95.96,5.35,1.03,9.73-3.38,13.21-4.86,16.81c-1.22,2.95-2.51,1-2.94.2l-.11-.21c-1.44-3.62-4.79-12.49-4.66-16.87s.04-6.16,1.15-9.71c1.11-3.55,1.21-3.85,1.29-4.94s-.51-7.23-1.06-8.23"/>
    <path class="st1" d="M75.02,77.32c.3,1.1,4.17,5.9,4.99,6.63s1.1.87,4.37,2.63c3.27,1.77,4.46,3.1,7.61,6.15,3.15,3.05,6.95,11.73,8.45,15.33,1.22,2.95-1.07,2.49-1.94,2.22l-.23-.07c-3.58-1.54-12.21-5.45-15.23-8.63s-4.33-4.39-6.06-7.68c-1.73-3.29-1.87-3.58-2.58-4.4s-5.48-4.75-6.57-5.07"/>
    <path class="st1" d="M75.07,66.81c.99.56,7.12,1.23,8.21,1.16s1.39-.17,4.95-1.23c3.56-1.06,5.35-.96,9.73-1.03,4.38-.07,13.21,3.38,16.81,4.86,2.95,1.22,1,2.51.2,2.94l-.21.11c-3.62,1.44-12.49,4.79-16.87,4.66s-6.16-.04-9.71-1.15-3.85-1.21-4.94-1.29-7.23.51-8.23,1.06"/>
    <path class="st1" d="M67.68,59.34c1.1-.3,5.9-4.17,6.63-4.99s.87-1.1,2.63-4.37c1.77-3.27,3.1-4.46,6.15-7.61,3.05-3.15,11.73-6.95,15.33-8.45,2.95-1.22,2.49,1.07,2.22,1.94l-.07.23c-1.54,3.58-5.45,12.21-8.63,15.23s-4.39,4.33-7.68,6.06-3.58,1.87-4.4,2.58-4.75,5.48-5.07,6.57"/>
  </g>
  <g>
    <g>
      <polyline class="st11" points="62.27 37.53 61.53 58.2 63.18 58.2 62.44 37.53"/>
      <polyline class="st7" points="62.27 37.53 61.53 58.2 63.18 58.2 62.44 37.53"/>
      <path class="st11" d="M61.1,58.2l.14-3.93c0-.11.09-.2.21-.2h1.81c.11,0,.2.09.21.2l.14,3.94h-2.51Z"/>
      <path class="st9" d="M63.03,54.07h.23c.11,0,.2.09.21.2l.14,3.94h-2.51s.14-3.94.14-3.94c0-.11.09-.2.21-.2h.23"/>
    </g>
    <g>
      <polyline class="st11" points="37.92 47.69 52.01 62.83 53.18 61.66 38.04 47.57"/>
      <polyline class="st7" points="37.92 47.69 52.01 62.83 53.18 61.66 38.04 47.57"/>
      <path class="st11" d="M51.71,63.13l-2.68-2.88c-.08-.08-.07-.21,0-.29l1.28-1.28c.08-.08.2-.08.29,0l2.88,2.68-1.77,1.77Z"/>
      <path class="st9" d="M50.15,58.84l.16-.16c.08-.08.2-.08.29,0l2.88,2.68-1.77,1.77-2.68-2.88c-.08-.08-.07-.21,0-.29l.16-.16"/>
    </g>
    <g>
      <polyline class="st11" points="27.89 72.08 48.56 72.83 48.56 71.17 27.89 71.92"/>
      <polyline class="st7" points="27.89 72.08 48.56 72.83 48.56 71.17 27.89 71.92"/>
      <path class="st11" d="M48.56,73.25l-3.93-.14c-.11,0-.2-.09-.2-.21v-1.81c0-.11.09-.2.2-.21l3.94-.14v2.51Z"/>
      <path class="st9" d="M44.42,71.32v-.23c0-.11.09-.2.2-.21l3.94-.14v2.51s-3.94-.14-3.94-.14c-.11,0-.2-.09-.2-.21v-.23"/>
    </g>
    <g>
      <polyline class="st11" points="38.04 96.43 53.18 82.34 52.01 81.17 37.92 96.31"/>
      <polyline class="st7" points="38.04 96.43 53.18 82.34 52.01 81.17 37.92 96.31"/>
      <path class="st11" d="M53.48,82.64l-2.88,2.68c-.08.08-.21.07-.29,0l-1.28-1.28c-.08-.08-.08-.2,0-.29l2.68-2.88,1.77,1.77Z"/>
      <path class="st9" d="M49.2,84.2l-.16-.16c-.08-.08-.08-.2,0-.29l2.68-2.88,1.77,1.77-2.88,2.68c-.08.08-.21.07-.29,0l-.16-.16"/>
    </g>
    <g>
      <polyline class="st11" points="62.44 106.47 63.18 85.8 61.53 85.8 62.27 106.47"/>
      <polyline class="st7" points="62.44 106.47 63.18 85.8 61.53 85.8 62.27 106.47"/>
      <path class="st11" d="M63.61,85.8l-.14,3.93c0,.11-.09.2-.21.2h-1.81c-.11,0-.2-.09-.21-.2l-.14-3.94h2.51Z"/>
      <path class="st9" d="M61.68,89.93h-.23c-.11,0-.2-.09-.21-.2l-.14-3.94h2.51s-.14,3.94-.14,3.94c0,.11-.09.2-.21.2h-.23"/>
    </g>
    <g>
      <polyline class="st11" points="86.78 96.31 72.69 81.17 71.53 82.34 86.67 96.43"/>
      <polyline class="st7" points="86.78 96.31 72.69 81.17 71.53 82.34 86.67 96.43"/>
      <path class="st11" d="M73,80.87l2.68,2.88c.08.08.07.21,0,.29l-1.28,1.28c-.08.08-.2.08-.29,0l-2.88-2.68,1.77-1.77Z"/>
      <path class="st9" d="M74.55,85.16l-.16.16c-.08.08-.2.08-.29,0l-2.88-2.68,1.77-1.77,2.68,2.88c.08.08.07.21,0,.29l-.16.16"/>
    </g>
    <g>
      <polyline class="st11" points="96.82 71.92 76.15 71.17 76.15 72.83 96.82 72.08"/>
      <polyline class="st7" points="96.82 71.92 76.15 71.17 76.15 72.83 96.82 72.08"/>
      <path class="st11" d="M76.15,70.75l3.93.14c.11,0,.2.09.2.21v1.81c0,.11-.09.2-.2.21l-3.94.14v-2.51Z"/>
      <path class="st9" d="M80.28,72.68v.23c0,.11-.09.2-.2.21l-3.94.14v-2.51s3.94.14,3.94.14c.11,0,.2.09.2.21v.23"/>
    </g>
    <g>
      <polyline class="st11" points="86.67 47.57 71.53 61.66 72.69 62.83 86.78 47.69"/>
      <polyline class="st7" points="86.67 47.57 71.53 61.66 72.69 62.83 86.78 47.69"/>
      <path class="st11" d="M71.22,61.36l2.88-2.68c.08-.08.21-.07.29,0l1.28,1.28c.08.08.08.2,0,.29l-2.68,2.88-1.77-1.77Z"/>
      <path class="st9" d="M75.51,59.8l.16.16c.08.08.08.2,0,.29l-2.68,2.88-1.77-1.77,2.88-2.68c.08-.08.21-.07.29,0l.16.16"/>
    </g>
  </g>
  <g>
    <path class="st0" d="M60.92,57.73l.43-.52c.55-.68,1.59-.67,2.14,0l.42.53c.62.77,1.7.99,2.58.52l.6-.32c.77-.41,1.73-.01,1.97.83l.19.65c.28.95,1.19,1.57,2.18,1.47l.67-.07c.87-.09,1.6.65,1.51,1.52l-.07.67c-.11.99.5,1.91,1.45,2.19l.65.2c.84.25,1.23,1.21.81,1.98l-.32.59c-.48.87-.27,1.95.5,2.58l.52.43c.68.55.67,1.59,0,2.14l-.53.42c-.77.62-.99,1.7-.52,2.58l.32.6c.41.77.01,1.73-.83,1.97l-.65.19c-.95.28-1.57,1.19-1.47,2.18l.07.67c.09.87-.65,1.6-1.52,1.51l-.67-.07c-.99-.11-1.91.5-2.19,1.45l-.2.65c-.25.84-1.21,1.23-1.98.81l-.59-.32c-.87-.48-1.95-.27-2.58.5l-.43.52c-.55.68-1.59.67-2.14,0l-.42-.53c-.62-.77-1.7-.99-2.58-.52l-.6.32c-.77.41-1.73.01-1.97-.83l-.19-.65c-.28-.95-1.19-1.57-2.18-1.47l-.67.07c-.87.09-1.6-.65-1.51-1.52l.07-.67c.11-.99-.5-1.91-1.45-2.19l-.65-.2c-.84-.25-1.23-1.21-.81-1.98l.32-.59c.48-.87.27-1.95-.5-2.58l-.52-.43c-.68-.55-.67-1.59,0-2.14l.53-.42c.77-.62.99-1.7.52-2.58l-.32-.6c-.41-.77-.01-1.73.83-1.97l.65-.19c.95-.28,1.57-1.19,1.47-2.18l-.07-.67c-.09-.87.65-1.6,1.52-1.51l.67.07c.99.11,1.91-.5,2.19-1.45l.2-.65c.25-.84,1.21-1.23,1.98-.81l.59.32c.87.48,1.95.27,2.58-.5Z"/>
    <g>
      <circle class="st6" cx="62.35" cy="72" r="8.61"/>
      <path class="st13" d="M61,73.45l-2.7-2.7c-.46-.46-1.21-.46-1.67,0h0c-.46.46-.46,1.21,0,1.67l3.54,3.54c.46.46,1.21.46,1.67,0l6.25-6.25c.46-.46.46-1.21,0-1.67h0c-.46-.46-1.21-.46-1.67,0"/>
    </g>
  </g>
  <g>
    <path class="st5" d="M64.36,35.99l-.57-1.87h-2.87l-.57,1.87h-1.8l2.78-7.9h2.04l2.79,7.9h-1.8ZM63.39,32.72c-.53-1.7-.82-2.66-.89-2.88-.07-.22-.11-.4-.14-.53-.12.46-.46,1.6-1.02,3.41h2.05Z"/>
    <path class="st5" d="M24.96,73.75c0,.71-.26,1.27-.77,1.68s-1.22.61-2.13.61c-.84,0-1.58-.16-2.23-.47v-1.55c.53.24.98.4,1.35.5.37.1.7.15,1.01.15.37,0,.65-.07.84-.21.2-.14.29-.35.29-.62,0-.15-.04-.29-.13-.41s-.21-.24-.38-.35-.51-.29-1.02-.53c-.48-.23-.84-.44-1.08-.65-.24-.21-.43-.45-.58-.73-.14-.28-.22-.6-.22-.97,0-.7.24-1.24.71-1.64.47-.4,1.12-.6,1.96-.6.41,0,.8.05,1.17.15s.76.23,1.17.41l-.54,1.3c-.42-.17-.77-.29-1.04-.36-.27-.07-.54-.1-.81-.1-.32,0-.56.07-.73.22-.17.15-.25.34-.25.58,0,.15.03.28.1.38.07.11.18.22.33.32.15.1.5.29,1.06.55.74.35,1.24.7,1.51,1.06.27.35.41.79.41,1.3Z"/>
    <path class="st5" d="M103.15,75.93h-1.67v-6.48h-2.14v-1.39h5.94v1.39h-2.14v6.48Z"/>
    <path class="st5" d="M60.88,112.88v3.02h-1.67v-7.87h2.29c1.07,0,1.86.2,2.37.58.51.39.77.98.77,1.77,0,.46-.13.87-.38,1.24s-.62.64-1.08.85c1.18,1.77,1.96,2.91,2.31,3.43h-1.85l-1.88-3.02h-.89ZM60.88,111.52h.54c.53,0,.92-.09,1.17-.26.25-.18.38-.45.38-.83s-.13-.64-.38-.8c-.26-.16-.65-.24-1.19-.24h-.51v2.13Z"/>
  </g>
</svg>